<svg height="0" width="0" >
    <symbol xmlns="http://www.w3.org/2000/svg" viewBox="0 0 24 24" id="google-icon">
        <g fill="none"><path fill-rule="evenodd" clip-rule="evenodd" d="M12 0C5.372 0 0 5.373 0 12s5.372 12 12 12c6.627 0 12-5.373 12-12S18.627 0 12 0zm.14 19.018c-3.868 0-7-3.14-7-7.018c0-3.878 3.132-7.018 7-7.018c1.89 0 3.47.697 4.682 1.829l-1.974 1.978v-.004c-.735-.702-1.667-1.062-2.708-1.062c-2.31 0-4.187 1.956-4.187 4.273c0 2.315 1.877 4.277 4.187 4.277c2.096 0 3.522-1.202 3.816-2.852H12.14v-2.737h6.585c.088.47.135.96.135 1.474c0 4.01-2.677 6.86-6.72 6.86z" fill="currentColor"/></g>    
    </symbol>
    <symbol xmlns="http://www.w3.org/2000/svg"  fill="none" viewBox="0 0 24 24" stroke="currentColor" id="box">
        <path stroke-linecap="round" stroke-linejoin="round" stroke-width="2" d="M8 4H6a2 2 0 00-2 2v12a2 2 0 002 2h12a2 2 0 002-2V6a2 2 0 00-2-2h-2m-4-1v8m0 0l3-3m-3 3L9 8m-5 5h2.586a1 1 0 01.707.293l2.414 2.414a1 1 0 00.707.293h3.172a1 1 0 00.707-.293l2.414-2.414a1 1 0 01.707-.293H20"/>
    </symbol>
    <symbol xmlns="http://www.w3.org/2000/svg" viewBox="0 0 24 24" stroke-width="2" stroke="currentColor" fill="none" stroke-linecap="round" stroke-linejoin="round" id="notification">
        <path stroke="none" d="M0 0h24v24H0z"/>  <path d="M10 5a2 2 0 0 1 4 0a7 7 0 0 1 4 6v3a4 4 0 0 0 2 3h-16a4 4 0 0 0 2 -3v-3a7 7 0 0 1 4 -6" />  <path d="M9 17v1a3 3 0 0 0 6 0v-1" />    
    </symbol>
    <symbol xmlns="http://www.w3.org/2000/svg" fill="none" viewBox="0 0 24 24" stroke="currentColor" id="loupe">
        <path stroke-linecap="round" stroke-linejoin="round" stroke-width="2" d="M21 21l-6-6m2-5a7 7 0 11-14 0 7 7 0 0114 0z"/>
    </symbol>
    <symbol xmlns="http://www.w3.org/2000/svg" fill="none" viewBox="0 0 24 24" stroke="currentColor" id="add">
        <path stroke-linecap="round" stroke-linejoin="round" stroke-width="2" d="M12 4v16m8-8H4"/>
    </symbol>
    <symbol xmlns="http://www.w3.org/2000/svg" viewBox="0 0 24 24" stroke-width="2" stroke="currentColor" fill="none" stroke-linecap="round" stroke-linejoin="round" id="todo">
        <path stroke="none" d="M0 0h24v24H0z"/>
        <path d="M3.5 5.5l1.5 1.5l2.5 -2.5" /><path d="M3.5 11.5l1.5 1.5l2.5 -2.5" />
        <path d="M3.5 17.5l1.5 1.5l2.5 -2.5" /><line x1="11" y1="6" x2="20" y2="6" />  
        <line x1="11" y1="12" x2="20" y2="12" />  <line x1="11" y1="18" x2="20" y2="18" />
    </symbol>
    <symbol xmlns="http://www.w3.org/2000/svg" fill="none" viewBox="0 0 24 24" stroke="currentColor" id="list">
        <path stroke-linecap="round" stroke-linejoin="round" stroke-width="2" d="M4 6h16M4 10h16M4 14h16M4 18h16"/>
    </symbol>
</svg>
